<mxfile host="app.diagrams.net" modified="2023-10-02T02:31:11.162Z" agent="Mozilla/5.0 (Windows NT 10.0; Win64; x64) AppleWebKit/537.36 (KHTML, like Gecko) Chrome/117.0.0.0 Safari/537.36" etag="83tYj9R0esbIZCIrm9_x" version="21.8.2" type="device">
  <diagram name="PÃ¡gina-1" id="QPfc8XHsK-Z7GaeQIMOa">
    <mxGraphModel dx="1050" dy="542" grid="1" gridSize="10" guides="1" tooltips="1" connect="1" arrows="1" fold="1" page="1" pageScale="1" pageWidth="827" pageHeight="1169" math="0" shadow="0">
      <root>
        <mxCell id="0" />
        <mxCell id="1" parent="0" />
        <mxCell id="018eueQMFiQzFAUqjAHk-25" value="" style="rounded=0;whiteSpace=wrap;html=1;" vertex="1" parent="1">
          <mxGeometry x="640" y="95" width="180" height="290" as="geometry" />
        </mxCell>
        <mxCell id="018eueQMFiQzFAUqjAHk-1" value="" style="rounded=0;whiteSpace=wrap;html=1;" vertex="1" parent="1">
          <mxGeometry x="50" y="140" width="180" height="200" as="geometry" />
        </mxCell>
        <mxCell id="018eueQMFiQzFAUqjAHk-8" style="edgeStyle=orthogonalEdgeStyle;rounded=0;orthogonalLoop=1;jettySize=auto;html=1;entryX=0;entryY=0.5;entryDx=0;entryDy=0;" edge="1" parent="1" source="018eueQMFiQzFAUqjAHk-3" target="018eueQMFiQzFAUqjAHk-6">
          <mxGeometry relative="1" as="geometry" />
        </mxCell>
        <mxCell id="018eueQMFiQzFAUqjAHk-3" value="Web" style="rounded=1;whiteSpace=wrap;html=1;" vertex="1" parent="1">
          <mxGeometry x="80" y="170" width="120" height="60" as="geometry" />
        </mxCell>
        <mxCell id="018eueQMFiQzFAUqjAHk-9" style="edgeStyle=orthogonalEdgeStyle;rounded=0;orthogonalLoop=1;jettySize=auto;html=1;entryX=0;entryY=0.5;entryDx=0;entryDy=0;" edge="1" parent="1" source="018eueQMFiQzFAUqjAHk-4" target="018eueQMFiQzFAUqjAHk-6">
          <mxGeometry relative="1" as="geometry" />
        </mxCell>
        <mxCell id="018eueQMFiQzFAUqjAHk-4" value="desktop" style="rounded=1;whiteSpace=wrap;html=1;" vertex="1" parent="1">
          <mxGeometry x="80" y="250" width="120" height="60" as="geometry" />
        </mxCell>
        <mxCell id="018eueQMFiQzFAUqjAHk-6" value="event&lt;br&gt;router" style="rounded=0;whiteSpace=wrap;html=1;" vertex="1" parent="1">
          <mxGeometry x="294" y="210" width="86" height="60" as="geometry" />
        </mxCell>
        <mxCell id="018eueQMFiQzFAUqjAHk-11" value="" style="shape=cylinder3;whiteSpace=wrap;html=1;boundedLbl=1;backgroundOutline=1;size=15;" vertex="1" parent="1">
          <mxGeometry x="450" y="165" width="50" height="40" as="geometry" />
        </mxCell>
        <mxCell id="018eueQMFiQzFAUqjAHk-27" style="edgeStyle=orthogonalEdgeStyle;rounded=0;orthogonalLoop=1;jettySize=auto;html=1;entryX=0;entryY=0.5;entryDx=0;entryDy=0;" edge="1" parent="1" source="018eueQMFiQzFAUqjAHk-12" target="018eueQMFiQzFAUqjAHk-17">
          <mxGeometry relative="1" as="geometry" />
        </mxCell>
        <mxCell id="018eueQMFiQzFAUqjAHk-12" value="Personas" style="text;html=1;strokeColor=none;fillColor=none;align=center;verticalAlign=middle;whiteSpace=wrap;rounded=0;" vertex="1" parent="1">
          <mxGeometry x="510" y="170" width="60" height="30" as="geometry" />
        </mxCell>
        <mxCell id="018eueQMFiQzFAUqjAHk-13" value="" style="shape=cylinder3;whiteSpace=wrap;html=1;boundedLbl=1;backgroundOutline=1;size=15;" vertex="1" parent="1">
          <mxGeometry x="450" y="275" width="50" height="40" as="geometry" />
        </mxCell>
        <mxCell id="018eueQMFiQzFAUqjAHk-28" style="edgeStyle=orthogonalEdgeStyle;rounded=0;orthogonalLoop=1;jettySize=auto;html=1;entryX=0;entryY=0.5;entryDx=0;entryDy=0;" edge="1" parent="1" source="018eueQMFiQzFAUqjAHk-14" target="018eueQMFiQzFAUqjAHk-18">
          <mxGeometry relative="1" as="geometry" />
        </mxCell>
        <mxCell id="018eueQMFiQzFAUqjAHk-14" value="pedidos" style="text;html=1;strokeColor=none;fillColor=none;align=center;verticalAlign=middle;whiteSpace=wrap;rounded=0;" vertex="1" parent="1">
          <mxGeometry x="510" y="280" width="60" height="30" as="geometry" />
        </mxCell>
        <mxCell id="018eueQMFiQzFAUqjAHk-15" style="edgeStyle=orthogonalEdgeStyle;rounded=0;orthogonalLoop=1;jettySize=auto;html=1;entryX=0;entryY=0.5;entryDx=0;entryDy=0;entryPerimeter=0;" edge="1" parent="1" source="018eueQMFiQzFAUqjAHk-6" target="018eueQMFiQzFAUqjAHk-11">
          <mxGeometry relative="1" as="geometry" />
        </mxCell>
        <mxCell id="018eueQMFiQzFAUqjAHk-16" style="edgeStyle=orthogonalEdgeStyle;rounded=0;orthogonalLoop=1;jettySize=auto;html=1;entryX=0;entryY=0.5;entryDx=0;entryDy=0;entryPerimeter=0;" edge="1" parent="1" source="018eueQMFiQzFAUqjAHk-6" target="018eueQMFiQzFAUqjAHk-13">
          <mxGeometry relative="1" as="geometry" />
        </mxCell>
        <mxCell id="018eueQMFiQzFAUqjAHk-19" style="edgeStyle=orthogonalEdgeStyle;rounded=0;orthogonalLoop=1;jettySize=auto;html=1;entryX=0.5;entryY=0;entryDx=0;entryDy=0;" edge="1" parent="1" source="018eueQMFiQzFAUqjAHk-17" target="018eueQMFiQzFAUqjAHk-6">
          <mxGeometry relative="1" as="geometry">
            <Array as="points">
              <mxPoint x="730" y="120" />
              <mxPoint x="337" y="120" />
            </Array>
          </mxGeometry>
        </mxCell>
        <mxCell id="018eueQMFiQzFAUqjAHk-23" style="edgeStyle=orthogonalEdgeStyle;rounded=0;orthogonalLoop=1;jettySize=auto;html=1;entryX=0;entryY=0.5;entryDx=0;entryDy=0;startArrow=classic;startFill=1;" edge="1" parent="1" source="018eueQMFiQzFAUqjAHk-17" target="018eueQMFiQzFAUqjAHk-22">
          <mxGeometry relative="1" as="geometry" />
        </mxCell>
        <mxCell id="018eueQMFiQzFAUqjAHk-17" value="CRUD &lt;br&gt;service" style="rounded=1;whiteSpace=wrap;html=1;" vertex="1" parent="1">
          <mxGeometry x="670" y="155" width="120" height="60" as="geometry" />
        </mxCell>
        <mxCell id="018eueQMFiQzFAUqjAHk-20" style="edgeStyle=orthogonalEdgeStyle;rounded=0;orthogonalLoop=1;jettySize=auto;html=1;entryX=0.5;entryY=1;entryDx=0;entryDy=0;" edge="1" parent="1" source="018eueQMFiQzFAUqjAHk-18" target="018eueQMFiQzFAUqjAHk-6">
          <mxGeometry relative="1" as="geometry">
            <Array as="points">
              <mxPoint x="730" y="350" />
              <mxPoint x="337" y="350" />
            </Array>
          </mxGeometry>
        </mxCell>
        <mxCell id="018eueQMFiQzFAUqjAHk-24" style="edgeStyle=orthogonalEdgeStyle;rounded=0;orthogonalLoop=1;jettySize=auto;html=1;entryX=0;entryY=0.5;entryDx=0;entryDy=0;startArrow=classic;startFill=1;" edge="1" parent="1" source="018eueQMFiQzFAUqjAHk-18" target="018eueQMFiQzFAUqjAHk-22">
          <mxGeometry relative="1" as="geometry" />
        </mxCell>
        <mxCell id="018eueQMFiQzFAUqjAHk-18" value="CRUD &lt;br&gt;service" style="rounded=1;whiteSpace=wrap;html=1;" vertex="1" parent="1">
          <mxGeometry x="670" y="265" width="120" height="60" as="geometry" />
        </mxCell>
        <mxCell id="018eueQMFiQzFAUqjAHk-21" value="" style="shape=cylinder3;whiteSpace=wrap;html=1;boundedLbl=1;backgroundOutline=1;size=15;" vertex="1" parent="1">
          <mxGeometry x="892" y="220" width="50" height="40" as="geometry" />
        </mxCell>
        <mxCell id="018eueQMFiQzFAUqjAHk-22" value="DB" style="text;html=1;strokeColor=none;fillColor=none;align=center;verticalAlign=middle;whiteSpace=wrap;rounded=0;" vertex="1" parent="1">
          <mxGeometry x="887" y="225" width="60" height="30" as="geometry" />
        </mxCell>
      </root>
    </mxGraphModel>
  </diagram>
</mxfile>
